<svg xmlns="http://www.w3.org/2000/svg" width="640" height="306" viewBox="0 0 640 306" role="img" aria-label="Terminal showing whoami for Muhammad Idrees and a WordPress to Next.js migration with every check passing" xml:space="preserve">
<title>Muhammad Idrees, full-stack developer</title>
<style>
text { font-family: ui-monospace, SFMono-Regular, 'SF Mono', Menlo, Consolas, 'Liberation Mono', monospace; font-size: 14px; }
.type { animation-name: type; animation-fill-mode: backwards; }
.caret { opacity: 0; animation-name: show; }
.o { animation: fade .2s ease-out backwards; }
.cursor { animation: hide 1ms backwards, blink 1.1s step-end infinite; }
@keyframes type { from { transform: none; } }
@keyframes show { from, to { opacity: 1; } }
@keyframes hide { from, to { opacity: 0; } }
@keyframes fade { from { opacity: 0; } }
@keyframes blink { 50% { opacity: 0; } }
@media (prefers-reduced-motion: reduce) { .type, .caret, .o, .cursor { animation: none; } }
</style>
<defs><clipPath id="win"><rect width="640" height="306" rx="8"/></clipPath></defs>
<g clip-path="url(#win)">
<rect width="640" height="306" fill="#ffffff"/>
<rect width="640" height="36" fill="#f6f8fa"/>
<rect y="36" width="640" height="1" fill="#d0d7de"/>
<circle cx="20" cy="18" r="5.5" fill="#d0d7de"/><circle cx="38" cy="18" r="5.5" fill="#d0d7de"/><circle cx="56" cy="18" r="5.5" fill="#d0d7de"/>
<text x="320" y="22" fill="#59636e" text-anchor="middle" style="font-size:12px">idrees@karachi: ~</text>
<text x="24" y="66" fill="#0969da">$</text>
<text x="44.0 52.4 60.8 69.2 77.6 86.0" y="66" fill="#1f2328">whoami</text>
<g class="type" style="transform:translateX(50.4px);animation-timing-function:steps(6);animation-duration:0.48s;animation-delay:0.50s"><rect x="44" y="51" width="58.8" height="21" fill="#ffffff"/><rect class="caret" x="44" y="53" width="8" height="17" fill="#1f2328" style="animation-duration:0.48s;animation-delay:0.50s"/></g>
<text x="44" y="90" fill="#1f2328" class="o" style="animation-delay:1.28s">Muhammad Idrees, full-stack developer</text>
<text x="44" y="114" fill="#59636e" class="o" style="animation-delay:1.38s">Next.js, React, Node.js, TypeScript, technical SEO</text>
<text x="24" y="162" fill="#0969da" class="o" style="animation-delay:1.78s">$</text>
<text x="44.0 52.4 60.8 69.2 77.6 86.0 94.4 102.8 111.2 119.6 128.0 136.4 144.8 153.2 161.6 170.0 178.4 186.8 195.2 203.6 212.0 220.4 228.8 237.2 245.6 254.0 262.4 270.8 279.2 287.6 296.0 304.4 312.8 321.2 329.6 338.0" y="162" fill="#1f2328">migrate --from wordpress --to nextjs</text>
<g class="type" style="transform:translateX(302.4px);animation-timing-function:steps(36);animation-duration:1.62s;animation-delay:2.08s"><rect x="44" y="147" width="310.8" height="21" fill="#ffffff"/><rect class="caret" x="44" y="149" width="8" height="17" fill="#1f2328" style="animation-duration:1.62s;animation-delay:2.08s"/></g>
<text x="24" y="186" fill="#1a7f37" class="o" style="animation-delay:4.05s">✓</text>
<text x="44" y="186" fill="#1f2328" class="o" style="animation-delay:4.05s">every old URL mapped to a 301</text>
<text x="24" y="210" fill="#1a7f37" class="o" style="animation-delay:4.40s">✓</text>
<text x="44" y="210" fill="#1f2328" class="o" style="animation-delay:4.40s">canonicals and sitemap rebuilt</text>
<text x="24" y="234" fill="#1a7f37" class="o" style="animation-delay:4.75s">✓</text>
<text x="44" y="234" fill="#1f2328" class="o" style="animation-delay:4.75s">Core Web Vitals: all green</text>
<text x="24" y="258" fill="#1a7f37" class="o" style="animation-delay:5.10s">✓</text>
<text x="44" y="258" fill="#1f2328" class="o" style="animation-delay:5.10s">launched, rankings intact</text>
<text x="24" y="282" fill="#0969da" class="o" style="animation-delay:5.55s">$</text>
<rect class="cursor" x="44" y="269" width="8" height="17" fill="#1f2328" style="animation-delay:5.55s,5.55s"/>
</g>
<rect x=".5" y=".5" width="639" height="305" rx="8" fill="none" stroke="#d0d7de"/>
</svg>
